<mxfile host="app.diagrams.net" modified="2024-04-24T16:56:19.421Z" agent="Mozilla/5.0 (Windows NT 10.0; Win64; x64) AppleWebKit/537.36 (KHTML, like Gecko) Chrome/124.0.0.0 Safari/537.36" etag="Sym5b1iZW1SxeqYgZ72l" version="24.3.0" type="github">
  <diagram name="Page-1" id="ji-48wni70O60ktTKh20">
    <mxGraphModel dx="2625" dy="1478" grid="1" gridSize="10" guides="1" tooltips="1" connect="1" arrows="1" fold="1" page="1" pageScale="1" pageWidth="850" pageHeight="1100" math="0" shadow="0">
      <root>
        <mxCell id="0" />
        <mxCell id="1" parent="0" />
        <mxCell id="45vGHS4JTwSO30f2I-vX-1" value="Project" style="whiteSpace=wrap;strokeWidth=2;" vertex="1" parent="1">
          <mxGeometry x="1514" y="20" width="67" height="33" as="geometry" />
        </mxCell>
        <mxCell id="45vGHS4JTwSO30f2I-vX-2" value="Project Management" style="rhombus;strokeWidth=2;whiteSpace=wrap;" vertex="1" parent="1">
          <mxGeometry x="216" y="103" width="196" height="196" as="geometry" />
        </mxCell>
        <mxCell id="45vGHS4JTwSO30f2I-vX-3" value="Define Project Scope" style="whiteSpace=wrap;strokeWidth=2;" vertex="1" parent="1">
          <mxGeometry x="20" y="368" width="165" height="33" as="geometry" />
        </mxCell>
        <mxCell id="45vGHS4JTwSO30f2I-vX-4" value="Assign Project Team" style="whiteSpace=wrap;strokeWidth=2;" vertex="1" parent="1">
          <mxGeometry x="235" y="368" width="158" height="33" as="geometry" />
        </mxCell>
        <mxCell id="45vGHS4JTwSO30f2I-vX-5" value="Track Project Progress" style="whiteSpace=wrap;strokeWidth=2;" vertex="1" parent="1">
          <mxGeometry x="443" y="368" width="174" height="33" as="geometry" />
        </mxCell>
        <mxCell id="45vGHS4JTwSO30f2I-vX-6" value="Analysis and Design" style="rhombus;strokeWidth=2;whiteSpace=wrap;" vertex="1" parent="1">
          <mxGeometry x="818" y="107" width="188" height="188" as="geometry" />
        </mxCell>
        <mxCell id="45vGHS4JTwSO30f2I-vX-7" value="Gather System Requirements" style="whiteSpace=wrap;strokeWidth=2;" vertex="1" parent="1">
          <mxGeometry x="668" y="368" width="222" height="33" as="geometry" />
        </mxCell>
        <mxCell id="45vGHS4JTwSO30f2I-vX-8" value="Design System Architecture" style="whiteSpace=wrap;strokeWidth=2;" vertex="1" parent="1">
          <mxGeometry x="940" y="368" width="211" height="33" as="geometry" />
        </mxCell>
        <mxCell id="45vGHS4JTwSO30f2I-vX-9" value="Development" style="rhombus;strokeWidth=2;whiteSpace=wrap;" vertex="1" parent="1">
          <mxGeometry x="1476" y="130" width="143" height="143" as="geometry" />
        </mxCell>
        <mxCell id="45vGHS4JTwSO30f2I-vX-10" value="Develop User Interface" style="whiteSpace=wrap;strokeWidth=2;" vertex="1" parent="1">
          <mxGeometry x="1201" y="368" width="179" height="33" as="geometry" />
        </mxCell>
        <mxCell id="45vGHS4JTwSO30f2I-vX-11" value="Implement Reservation System" style="whiteSpace=wrap;strokeWidth=2;" vertex="1" parent="1">
          <mxGeometry x="1430" y="368" width="236" height="33" as="geometry" />
        </mxCell>
        <mxCell id="45vGHS4JTwSO30f2I-vX-12" value="Design Database Schema" style="whiteSpace=wrap;strokeWidth=2;" vertex="1" parent="1">
          <mxGeometry x="1715" y="368" width="191" height="33" as="geometry" />
        </mxCell>
        <mxCell id="45vGHS4JTwSO30f2I-vX-13" value="Testing" style="rhombus;strokeWidth=2;whiteSpace=wrap;" vertex="1" parent="1">
          <mxGeometry x="2210" y="152" width="99" height="99" as="geometry" />
        </mxCell>
        <mxCell id="45vGHS4JTwSO30f2I-vX-14" value="Perform Unit Tests" style="whiteSpace=wrap;strokeWidth=2;" vertex="1" parent="1">
          <mxGeometry x="1957" y="368" width="147" height="33" as="geometry" />
        </mxCell>
        <mxCell id="45vGHS4JTwSO30f2I-vX-15" value="Conduct Integration Testing" style="whiteSpace=wrap;strokeWidth=2;" vertex="1" parent="1">
          <mxGeometry x="2153" y="368" width="213" height="33" as="geometry" />
        </mxCell>
        <mxCell id="45vGHS4JTwSO30f2I-vX-16" value="Engage in User Testing" style="whiteSpace=wrap;strokeWidth=2;" vertex="1" parent="1">
          <mxGeometry x="2416" y="368" width="175" height="33" as="geometry" />
        </mxCell>
        <mxCell id="45vGHS4JTwSO30f2I-vX-17" value="Deployment" style="rhombus;strokeWidth=2;whiteSpace=wrap;" vertex="1" parent="1">
          <mxGeometry x="2958" y="134" width="134" height="134" as="geometry" />
        </mxCell>
        <mxCell id="45vGHS4JTwSO30f2I-vX-18" value="Set up Server Infrastructure" style="whiteSpace=wrap;strokeWidth=2;" vertex="1" parent="1">
          <mxGeometry x="2641" y="368" width="215" height="33" as="geometry" />
        </mxCell>
        <mxCell id="45vGHS4JTwSO30f2I-vX-19" value="Integrate with Existing Systems" style="whiteSpace=wrap;strokeWidth=2;" vertex="1" parent="1">
          <mxGeometry x="2906" y="368" width="239" height="33" as="geometry" />
        </mxCell>
        <mxCell id="45vGHS4JTwSO30f2I-vX-20" value="Deploy to Production" style="whiteSpace=wrap;strokeWidth=2;" vertex="1" parent="1">
          <mxGeometry x="3195" y="368" width="165" height="33" as="geometry" />
        </mxCell>
        <mxCell id="45vGHS4JTwSO30f2I-vX-22" value="Project Planning" style="curved=1;startArrow=none;endArrow=block;exitX=0.0007932234783561863;exitY=0.8136560226982212;entryX=0.4996306910659328;entryY=-0.009990403146454782;rounded=0;" edge="1" parent="1" source="45vGHS4JTwSO30f2I-vX-2" target="45vGHS4JTwSO30f2I-vX-3">
          <mxGeometry relative="1" as="geometry">
            <Array as="points">
              <mxPoint x="102" y="333" />
            </Array>
          </mxGeometry>
        </mxCell>
        <mxCell id="45vGHS4JTwSO30f2I-vX-23" value="Resource Allocation" style="curved=1;startArrow=none;endArrow=block;exitX=0.500462395804269;exitY=1.0013791687634526;entryX=0.5005736049217514;entryY=-0.009990403146454782;rounded=0;" edge="1" parent="1" source="45vGHS4JTwSO30f2I-vX-2" target="45vGHS4JTwSO30f2I-vX-4">
          <mxGeometry relative="1" as="geometry">
            <Array as="points" />
          </mxGeometry>
        </mxCell>
        <mxCell id="45vGHS4JTwSO30f2I-vX-24" value="Progress Monitoring" style="curved=1;startArrow=none;endArrow=block;exitX=1.0001315681301817;exitY=0.8068374645678549;entryX=0.5027119866732893;entryY=-0.009990403146454782;rounded=0;" edge="1" parent="1" source="45vGHS4JTwSO30f2I-vX-2" target="45vGHS4JTwSO30f2I-vX-5">
          <mxGeometry relative="1" as="geometry">
            <Array as="points">
              <mxPoint x="530" y="333" />
            </Array>
          </mxGeometry>
        </mxCell>
        <mxCell id="45vGHS4JTwSO30f2I-vX-25" value="" style="curved=1;startArrow=none;endArrow=block;exitX=0.002810520912284282;exitY=0.5725611041367553;entryX=0.5005029110198326;entryY=0.00184927595422623;rounded=0;" edge="1" parent="1" source="45vGHS4JTwSO30f2I-vX-1" target="45vGHS4JTwSO30f2I-vX-6">
          <mxGeometry relative="1" as="geometry">
            <Array as="points">
              <mxPoint x="912" y="78" />
            </Array>
          </mxGeometry>
        </mxCell>
        <mxCell id="45vGHS4JTwSO30f2I-vX-26" value="Requirement Analysis" style="curved=1;startArrow=none;endArrow=block;exitX=0.0005694247306661403;exitY=0.997588760254068;entryX=0.4993666227873381;entryY=-0.009990403146454782;rounded=0;" edge="1" parent="1" source="45vGHS4JTwSO30f2I-vX-6" target="45vGHS4JTwSO30f2I-vX-7">
          <mxGeometry relative="1" as="geometry">
            <Array as="points">
              <mxPoint x="779" y="333" />
            </Array>
          </mxGeometry>
        </mxCell>
        <mxCell id="45vGHS4JTwSO30f2I-vX-27" value="System Design" style="curved=1;startArrow=none;endArrow=block;exitX=1.000436397308999;exitY=0.997588760254068;entryX=0.4991929113017439;entryY=-0.009990403146454782;rounded=0;" edge="1" parent="1" source="45vGHS4JTwSO30f2I-vX-6" target="45vGHS4JTwSO30f2I-vX-8">
          <mxGeometry relative="1" as="geometry">
            <Array as="points">
              <mxPoint x="1045" y="333" />
            </Array>
          </mxGeometry>
        </mxCell>
        <mxCell id="45vGHS4JTwSO30f2I-vX-28" value="" style="curved=1;startArrow=none;endArrow=block;exitX=0.502005961403918;exitY=1.0121212583599668;entryX=0.5009398560423951;entryY=-0.0006992900288188374;rounded=0;" edge="1" parent="1" source="45vGHS4JTwSO30f2I-vX-1" target="45vGHS4JTwSO30f2I-vX-9">
          <mxGeometry relative="1" as="geometry">
            <Array as="points" />
          </mxGeometry>
        </mxCell>
        <mxCell id="45vGHS4JTwSO30f2I-vX-29" value="Frontend Development" style="curved=1;startArrow=none;endArrow=block;exitX=0.0013932981691160402;exitY=0.7552763947997304;entryX=0.49845506891857977;entryY=-0.009990403146454782;rounded=0;" edge="1" parent="1" source="45vGHS4JTwSO30f2I-vX-9" target="45vGHS4JTwSO30f2I-vX-10">
          <mxGeometry relative="1" as="geometry">
            <Array as="points">
              <mxPoint x="1290" y="333" />
            </Array>
          </mxGeometry>
        </mxCell>
        <mxCell id="45vGHS4JTwSO30f2I-vX-30" value="Backend Development" style="curved=1;startArrow=none;endArrow=block;exitX=0.5009398560423951;exitY=0.9983938257177393;entryX=0.4984508449748411;entryY=-0.009990403146454782;rounded=0;" edge="1" parent="1" source="45vGHS4JTwSO30f2I-vX-9" target="45vGHS4JTwSO30f2I-vX-11">
          <mxGeometry relative="1" as="geometry">
            <Array as="points" />
          </mxGeometry>
        </mxCell>
        <mxCell id="45vGHS4JTwSO30f2I-vX-31" value="Database Design" style="curved=1;startArrow=none;endArrow=block;exitX=1.0004864139156742;exitY=0.7494458356626794;entryX=0.5027979106803215;entryY=-0.009990403146454782;rounded=0;" edge="1" parent="1" source="45vGHS4JTwSO30f2I-vX-9" target="45vGHS4JTwSO30f2I-vX-12">
          <mxGeometry relative="1" as="geometry">
            <Array as="points">
              <mxPoint x="1811" y="333" />
            </Array>
          </mxGeometry>
        </mxCell>
        <mxCell id="45vGHS4JTwSO30f2I-vX-32" value="" style="curved=1;startArrow=none;endArrow=block;exitX=1.0012014018955515;exitY=0.5654114255737258;entryX=0.5023676554361979;entryY=-0.003622112852154356;rounded=0;" edge="1" parent="1" source="45vGHS4JTwSO30f2I-vX-1" target="45vGHS4JTwSO30f2I-vX-13">
          <mxGeometry relative="1" as="geometry">
            <Array as="points">
              <mxPoint x="2260" y="78" />
            </Array>
          </mxGeometry>
        </mxCell>
        <mxCell id="45vGHS4JTwSO30f2I-vX-33" value="Unit Testing" style="curved=1;startArrow=none;endArrow=block;exitX=0.00041060014204545456;exitY=0.7871333968824887;entryX=0.49708775111607145;entryY=-0.009990403146454782;rounded=0;" edge="1" parent="1" source="45vGHS4JTwSO30f2I-vX-13" target="45vGHS4JTwSO30f2I-vX-14">
          <mxGeometry relative="1" as="geometry">
            <Array as="points">
              <mxPoint x="2030" y="333" />
            </Array>
          </mxGeometry>
        </mxCell>
        <mxCell id="45vGHS4JTwSO30f2I-vX-34" value="Integration Testing" style="curved=1;startArrow=none;endArrow=block;exitX=0.5023676554361979;exitY=1.0002919977361506;entryX=0.501100459568937;entryY=-0.009990403146454782;rounded=0;" edge="1" parent="1" source="45vGHS4JTwSO30f2I-vX-13" target="45vGHS4JTwSO30f2I-vX-15">
          <mxGeometry relative="1" as="geometry">
            <Array as="points" />
          </mxGeometry>
        </mxCell>
        <mxCell id="45vGHS4JTwSO30f2I-vX-35" value="User Acceptance Testing" style="curved=1;startArrow=none;endArrow=block;exitX=1.0043247107303503;exitY=0.7704562769589242;entryX=0.49983943394252234;entryY=-0.009990403146454782;rounded=0;" edge="1" parent="1" source="45vGHS4JTwSO30f2I-vX-13" target="45vGHS4JTwSO30f2I-vX-16">
          <mxGeometry relative="1" as="geometry">
            <Array as="points">
              <mxPoint x="2503" y="333" />
            </Array>
          </mxGeometry>
        </mxCell>
        <mxCell id="45vGHS4JTwSO30f2I-vX-36" value="" style="curved=1;startArrow=none;endArrow=block;exitX=1.0012014018955515;exitY=0.5346602409075132;entryX=0.5030319441610308;entryY=0.0017607389990963152;rounded=0;" edge="1" parent="1" source="45vGHS4JTwSO30f2I-vX-1" target="45vGHS4JTwSO30f2I-vX-17">
          <mxGeometry relative="1" as="geometry">
            <Array as="points">
              <mxPoint x="3025" y="78" />
            </Array>
          </mxGeometry>
        </mxCell>
        <mxCell id="45vGHS4JTwSO30f2I-vX-37" value="Server Setup" style="curved=1;startArrow=none;endArrow=block;exitX=0.002291494341038946;exitY=0.7413399183709868;entryX=0.4994260211323583;entryY=-0.009990403146454782;rounded=0;" edge="1" parent="1" source="45vGHS4JTwSO30f2I-vX-17" target="45vGHS4JTwSO30f2I-vX-18">
          <mxGeometry relative="1" as="geometry">
            <Array as="points">
              <mxPoint x="2748" y="333" />
            </Array>
          </mxGeometry>
        </mxCell>
        <mxCell id="45vGHS4JTwSO30f2I-vX-38" value="System Integration" style="curved=1;startArrow=none;endArrow=block;exitX=0.5030319441610308;exitY=1.00324163863908;entryX=0.49960786827438547;entryY=-0.009990403146454782;rounded=0;" edge="1" parent="1" source="45vGHS4JTwSO30f2I-vX-17" target="45vGHS4JTwSO30f2I-vX-19">
          <mxGeometry relative="1" as="geometry">
            <Array as="points" />
          </mxGeometry>
        </mxCell>
        <mxCell id="45vGHS4JTwSO30f2I-vX-39" value="Release" style="curved=1;startArrow=none;endArrow=block;exitX=1.0037723939810226;exitY=0.7649452145916855;entryX=0.5001137935754024;entryY=-0.009990403146454782;rounded=0;" edge="1" parent="1" source="45vGHS4JTwSO30f2I-vX-17" target="45vGHS4JTwSO30f2I-vX-20">
          <mxGeometry relative="1" as="geometry">
            <Array as="points">
              <mxPoint x="3278" y="333" />
            </Array>
          </mxGeometry>
        </mxCell>
      </root>
    </mxGraphModel>
  </diagram>
</mxfile>
